<svg xmlns="http://www.w3.org/2000/svg" id="Layer_1" data-name="Layer 1" viewBox="0 0 223.37 71.09"><title>binary</title>
						<defs>
							<linearGradient id="grad1" x1="0%" y1="0%" x2="100%" y2="0%">
							<stop offset="0%" style="stop-color:rgb(65,117,186);stop-opacity:1"></stop>
							<stop offset="100%" style="stop-color:rgb(65,117,186);stop-opacity:1"></stop>
							</linearGradient>
						</defs>
						<path d="M48.86,17.64H60.15V9.07H48.86Zm11.29,4H48.86V59.39H60.15ZM141,40.49a9.42,9.42,0,1,1-18.83.14c0-5.37,3.81-9.72,9.32-9.72A9.26,9.26,0,0,1,141,40.49m11.29,18.9V21.65H141v4h-.14c-2.24-3.74-6.87-5.3-11-5.3-11.36,0-19,9.11-19,20.13,0,11.22,7.34,20.2,19,20.2,4.08,0,9-1.5,11-5.37H141V59.4h11.29Zm29-29V20.42c-11.27,0-20.41,8.42-20.41,18.8h0V59.43h10.77V39.22h0c0-4.91,4.32-8.88,9.64-8.88M30.77,40.55a9.64,9.64,0,0,1-19.27.23c0-.08,0-.15,0-.23a8.77,8.77,0,0,1,.06-1,.68.68,0,0,0,0-.14c0-.29.08-.58.14-.87a.14.14,0,0,1,0-.06,9.46,9.46,0,0,1,.61-1.84,9.64,9.64,0,0,1,18.43,3.94m11.06.22A20.41,20.41,0,0,0,21.42,20.36a20.17,20.17,0,0,0-9.07,2.15V9.08H1V40.77a20.41,20.41,0,0,0,40.82,0m62.36,18.6v-20c0-5.82-.43-9.71-4.58-14.11-3.34-3.53-8.42-4.89-13.18-4.89s-9.34,1.42-12.81,4.95c-4,4-4.58,8.6-4.58,14.05v20h11.7v-20c0-4.33.31-8.73,5.82-8.73,5.26,0,5.94,4.58,5.94,8.73v20ZM224.38,41.62v-20h-11.7V41.67c0,4.32-.33,8.67-5.82,8.67-5.26,0-5.94-4.58-5.94-8.73v-20h-11.7v20c0,5.82.43,9.72,4.58,14.11,3.34,3.53,8.42,4.89,13.18,4.89a20.85,20.85,0,0,0,5.69-.76v1.3c0,4.15-.68,8.73-5.94,8.73a6.66,6.66,0,0,1-2.77-.53V80a23.13,23.13,0,0,0,2.65.17c4.77,0,9.84-1.36,13.18-4.89,4.15-4.39,4.58-8.29,4.58-14.11V41.62h0" transform="translate(-1.01 -9.07)" fill="url(#grad1)"></path></svg>
